<?xml version="1.0" encoding="iso-8859-1"?>
<!-- Generator: Adobe Illustrator 17.1.0, SVG Export Plug-In . SVG Version: 6.00 Build 0)  -->
<!DOCTYPE svg PUBLIC "-//W3C//DTD SVG 1.1//EN" "http://www.w3.org/Graphics/SVG/1.1/DTD/svg11.dtd">
<svg version="1.1" id="Layer_1" xmlns="http://www.w3.org/2000/svg" xmlns:xlink="http://www.w3.org/1999/xlink" x="0px" y="0px"
	 viewBox="0 0 800 800" style="enable-background:new 0 0 800 800;" xml:space="preserve">
<path d="M356.364,429.091c116.482,0,210.909-94.427,210.909-210.909S472.845,7.273,356.364,7.273S145.455,101.7,145.455,218.182
	S239.882,429.091,356.364,429.091z M454.071,301.367c-9.594,31.723-50.694,55.57-99.951,55.57c-49.258,0-90.357-23.847-99.951-55.57
	H454.071z M800,720v29.091c0,8.034-6.512,14.545-14.545,14.545H552.727c-8.034,0-14.545-6.512-14.545-14.545V720
	c0-8.034,6.512-14.545,14.545-14.545h232.727C793.488,705.455,800,711.966,800,720z M526.198,783.493
	c-46.186,5.511-102.141,9.235-169.835,9.235c-203.36,0-302.878-33.229-339.363-49.463C7.586,739.075,0,727.1,0,716.795v-69.522
	c0-104.18,79.32-190.606,180.534-202.182c3.075-0.352,7.636,0.964,10.143,2.78c46.666,33.785,103.8,53.948,165.687,53.948
	s119.021-20.163,165.687-53.948c2.507-1.816,7.068-3.132,10.143-2.78c101.214,11.576,180.534,98.002,180.534,202.182v29.091h-160
	c-24.062,0-43.636,19.574-43.636,43.636v29.091C509.091,763.13,515.868,775.505,526.198,783.493z"/>
</svg>
