<?xml version="1.0" encoding="iso-8859-1"?>
<!-- Generator: Adobe Illustrator 17.1.0, SVG Export Plug-In . SVG Version: 6.00 Build 0)  -->
<!DOCTYPE svg PUBLIC "-//W3C//DTD SVG 1.1//EN" "http://www.w3.org/Graphics/SVG/1.1/DTD/svg11.dtd">
<svg version="1.1" id="Layer_1" xmlns="http://www.w3.org/2000/svg" xmlns:xlink="http://www.w3.org/1999/xlink" x="0px" y="0px"
	 viewBox="0 0 800 800" style="enable-background:new 0 0 800 800;" xml:space="preserve">
<path d="M755,610.268c0-6.223-5.045-11.268-11.268-11.268H563.268c-6.223,0-11.268,5.045-11.268,11.268v22.465
	c0,6.223,5.045,11.268,11.268,11.268h180.465c6.223,0,11.268-5.045,11.268-11.268V610.268z M397.183,377.621
	c61.015,0,110.476-49.462,110.476-110.476s-49.462-110.476-110.476-110.476s-110.476,49.462-110.476,110.476
	S336.169,377.621,397.183,377.621z M454.754,306c-5.462,23-28.86,31.636-56.902,31.636c-28.042,0-51.439-8.636-56.901-31.636
	H454.754z M585.916,491.238v36.416c0,5.398-5.007,11.671-9.938,13.865c-19.111,8.504-71.756,25.909-178.278,25.909
	c-106.764,0-157.354-17.485-176.365-25.967c-4.444-1.983-7.25-6.459-7.25-11.326l0-38.898c0-55.304,40.841-101.057,94.926-106.129
	c24.881,18.706,55.189,29.938,88.619,29.938c33.514,0,64.127-11.289,89.028-30.078C541.417,389.264,585.916,435.379,585.916,491.238
	z M800,392.501v21.552c0,3.194-3.76,6.907-6.678,8.206c-11.311,5.033-42.867,15.334-105.91,15.334
	c-63.044,0-95.039-10.301-106.35-15.334c-2.919-1.298-6.414-5.011-6.414-8.206v-21.552c0-33.014,26.521-60.277,58.857-62.883
	c14.711,11.115,33.176,17.791,53.004,17.791c19.87,0,38.266-6.705,52.999-17.862C772.236,331.681,800,359.158,800,392.501z
	 M216.474,422.26c-11.311,5.033-43.967,15.334-107.01,15.334c-62.111,0-92.483-9.999-104.185-15.107
	C2.353,421.21,0,417.463,0,414.27l0-21.769c0-32.677,23.731-59.72,55.672-62.796c14.727,11.062,32.564,17.704,52.34,17.704
	c19.928,0,38.075-6.743,52.853-17.958c33.326,1.144,64.487,29.047,64.487,63.051v21.552
	C225.352,417.248,219.392,420.961,216.474,422.26z M107.659,194.764c-36.11,0-65.384,29.273-65.384,65.384
	c0,36.11,29.274,65.384,65.384,65.384c36.111,0,65.384-29.273,65.384-65.384C173.043,224.038,143.77,194.764,107.659,194.764z
	 M107.659,303.107c-16.936,0-31.067-8.107-34.366-19.107h68.733C138.727,295,124.596,303.107,107.659,303.107z M686.707,194.764
	c-36.111,0-65.384,29.273-65.384,65.384c0,36.11,29.273,65.384,65.384,65.384c36.11,0,65.384-29.273,65.384-65.384
	C752.091,224.038,722.817,194.764,686.707,194.764z M686.707,303.107c-16.936,0-31.067-8.107-34.366-19.107h68.733
	C717.774,295,703.643,303.107,686.707,303.107z"/>
</svg>
