<?xml version="1.0" encoding="iso-8859-1"?>
<!-- Generator: Adobe Illustrator 17.1.0, SVG Export Plug-In . SVG Version: 6.00 Build 0)  -->
<!DOCTYPE svg PUBLIC "-//W3C//DTD SVG 1.1//EN" "http://www.w3.org/Graphics/SVG/1.1/DTD/svg11.dtd">
<svg version="1.1" id="Layer_1" xmlns="http://www.w3.org/2000/svg" xmlns:xlink="http://www.w3.org/1999/xlink" x="0px" y="0px"
	 viewBox="0 0 800 800" style="enable-background:new 0 0 800 800;" xml:space="preserve">
<path d="M642.688,672.632L792.17,548.053c4.761-3.968,5.41-11.109,1.442-15.87l-14.424-17.306
	c-3.967-4.76-11.108-5.409-15.869-1.442L637.556,618.238l-52.607-52.597c-4.382-4.381-11.552-4.381-15.934,0.001l-15.933,15.933
	c-4.382,4.382-4.382,11.552,0,15.934l74.425,74.434C631.509,675.945,638.34,676.255,642.688,672.632z M397.683,345.793
	c61.015,0,110.476-49.462,110.476-110.476s-49.462-110.476-110.476-110.476s-110.476,49.462-110.476,110.476
	S336.669,345.793,397.683,345.793z M455.254,274c-5.462,23-28.86,31.636-56.902,31.636S346.912,297,341.45,274H455.254z
	 M585.915,460.079v36.416c0,5.398-5.007,11.671-9.938,13.865c-19.111,8.504-71.756,25.909-178.278,25.909
	c-106.764,0-157.354-17.485-176.365-25.967c-4.444-1.983-7.25-6.46-7.25-11.326l0-38.898c0-55.304,40.841-101.057,94.926-106.129
	c24.881,18.706,55.189,29.938,88.619,29.938c33.514,0,64.127-11.289,89.028-30.078C541.416,358.105,585.915,404.22,585.915,460.079z
	 M800,361.342v21.552c0,3.194-3.76,6.907-6.678,8.206c-11.311,5.033-42.867,15.334-105.91,15.334
	c-63.044,0-95.039-10.301-106.35-15.334c-2.919-1.298-6.414-5.011-6.414-8.206v-21.552c0-33.014,26.521-60.277,58.857-62.883
	c14.71,11.115,33.176,17.791,53.004,17.791c19.87,0,38.266-6.705,52.999-17.862C772.236,300.522,800,327.999,800,361.342z
	 M216.474,391.101c-11.311,5.033-43.967,15.334-107.01,15.334c-62.111,0-92.483-9.999-104.185-15.107
	C2.353,390.05,0,386.303,0,383.111l0-21.769c0-32.677,23.731-59.72,55.672-62.796c14.727,11.062,32.564,17.704,52.34,17.704
	c19.928,0,38.075-6.743,52.853-17.958c33.326,1.144,64.487,29.047,64.487,63.051v21.552
	C225.352,386.089,219.392,389.802,216.474,391.101z M108.159,162.936c-36.11,0-65.384,29.273-65.384,65.384
	c0,36.11,29.273,65.384,65.384,65.384c36.111,0,65.384-29.273,65.384-65.384C173.543,192.209,144.27,162.936,108.159,162.936z
	 M108.159,271.107c-16.936,0-31.067-8.107-34.366-19.107h68.733C139.227,263,125.096,271.107,108.159,271.107z M687.207,162.936
	c-36.111,0-65.384,29.273-65.384,65.384c0,36.11,29.273,65.384,65.384,65.384c36.11,0,65.384-29.273,65.384-65.384
	C752.591,192.209,723.317,162.936,687.207,162.936z M687.206,271.107c-16.936,0-31.067-8.107-34.366-19.107h68.733
	C718.274,263,704.143,271.107,687.206,271.107z"/>
</svg>
