<?xml version="1.0" encoding="iso-8859-1"?>
<!-- Generator: Adobe Illustrator 17.1.0, SVG Export Plug-In . SVG Version: 6.00 Build 0)  -->
<!DOCTYPE svg PUBLIC "-//W3C//DTD SVG 1.1//EN" "http://www.w3.org/Graphics/SVG/1.1/DTD/svg11.dtd">
<svg version="1.1" id="Layer_1" xmlns="http://www.w3.org/2000/svg" xmlns:xlink="http://www.w3.org/1999/xlink" x="0px" y="0px"
	 viewBox="0 0 800 800" style="enable-background:new 0 0 800 800;" xml:space="preserve">
<path d="M336.28,413.773c109.917,0,199.023-89.106,199.023-199.023S446.197,15.727,336.28,15.727S137.257,104.833,137.257,214.75
	S226.363,413.773,336.28,413.773z M432.609,293.255c-9.054,29.935-47.837,52.438-94.318,52.438
	c-46.482,0-85.265-22.503-94.318-52.438H432.609z M795.078,629.439L612.985,781.194c-5.296,4.414-13.618,4.036-18.493-0.839
	l-90.661-90.672c-5.337-5.338-5.337-14.073,0.001-19.411l19.408-19.408c5.337-5.337,14.072-5.338,19.41-0.001l64.084,64.072
	l153.2-127.667c5.799-4.832,14.498-4.042,19.331,1.757l17.57,21.082C801.667,615.906,800.877,624.605,795.078,629.439z
	 M482.478,711.034l34.53,34.535c-47.126,6.636-106.528,11.346-180.728,11.346c-191.899,0-285.809-31.356-320.238-46.675
	C7.159,706.287,0,694.987,0,685.263v-65.604c0-98.308,74.85-179.864,170.359-190.788c2.902-0.333,7.206,0.91,9.571,2.623
	c44.036,31.881,97.95,50.908,156.349,50.908s112.313-19.027,156.349-50.908c2.366-1.713,6.669-2.956,9.571-2.623
	C597.71,439.794,672.56,521.35,672.56,619.659v1.109l-63.977,53.311l-44.582-44.568c-8.297-8.297-19.329-12.868-31.057-12.868
	s-22.76,4.571-31.057,12.868l-19.409,19.409C465.347,666.05,465.347,693.904,482.478,711.034z"/>
</svg>
